<svg version="1.2" xmlns="http://www.w3.org/2000/svg" viewBox="0 0 276 188" width="276" height="188">
	<title>Group 37187 (1)</title>
	<style>
		.s0 { fill: none;stroke: #000000;stroke-linecap: round;stroke-linejoin: round;stroke-width: 2 } 
		.s1 { fill: none;stroke: #000000 } 
		.s2 { fill: #000000 } 
		.s3 { fill: none;stroke: #000000;stroke-width: 2 } 
		.s4 { fill: none;stroke: #000000;stroke-linecap: round;stroke-linejoin: round;stroke-width: .5 } 
		.s5 { fill: none;stroke: #000000;stroke-linecap: round;stroke-linejoin: round;stroke-width: 2;stroke-dasharray: 5 } 
	</style>
	<path fill-rule="evenodd" class="s0" d="m177.7 165.1h2.1v9.2h-74.1v-9.2h1.9m0-45.8h-1.7c-0.3 0-0.5-0.3-0.5-0.5v-8.7c0-0.3 0.2-0.5 0.5-0.5h5.1zm66.7-9.7h5.3c0.3 0 0.5 0.2 0.5 0.5v8.7c0 0.2-0.2 0.5-0.5 0.5h-1.9zm-63.2 0v-8.9c0-0.5 0.4-1 1-1h12.7c0.6 0 1 0.5 1 1v8.9zm48.7 0v-9c0-0.5 0.4-1 1-1h12.6c0.5 0 1 0.5 1 1v9zm-52 55.5v-45.8m0 45.8h70.1m-70.1-45.8h70.1m0 45.8v-45.8m-66.7-9.7h14.7m0 0h33.9m0 0h14.6"/>
	<path fill-rule="evenodd" class="s1" d="m143 141.1l-0.1 0.5h0.6 5.9l-8 15.2 1.1-10.5 0.1-0.6h-0.6-5.8l8.3-13.7z"/>
	<path class="s2" d="m118.1 107v-1.5h-1.5v-0.6h1.5v-1.6h0.7v1.6h1.5v0.6h-1.5v1.5z"/>
	<path class="s2" d="m165.1 105.7v-1.2h3.8v1.2z"/>
	<path fill-rule="evenodd" class="s0" d="m40 185.8c-11.9 0-21.6-9.6-21.6-21.4 0-8.7 5.2-16.2 12.8-19.5-0.3-0.2-0.5-0.5-0.5-0.8v-47.9h-23.7c-0.6 0-1-0.4-1-1v-39.7c0-1.1 0.9-2 2-2h64c1.1 0 2 0.9 2 2v39.7c0 0.6-0.5 1-1 1h-23.8v47.9c0 0.3-0.1 0.6-0.4 0.8 7.5 3.3 12.8 10.8 12.8 19.5 0 11.8-9.7 21.4-21.6 21.4zm7.2-89.6h-14.5v47.9q0 0.1 0 0.2c2.3-0.8 4.7-1.2 7.3-1.2 2.5 0 5 0.4 7.3 1.2q-0.1-0.1-0.1-0.2zm-39.2-40.7v38.7h64v-38.7z"/>
	<path fill-rule="evenodd" class="s3" d="m40 169.5c2.8 0 5.1-2.3 5.1-5.1 0-2.8-2.3-5.1-5.1-5.1-2.8 0-5.1 2.3-5.1 5.1 0 2.8 2.3 5.1 5.1 5.1z"/>
	<path fill-rule="evenodd" class="s3" d="m40 53.1c14.2 0 25.8-11.4 25.8-25.4-0.1-14.1-11.6-25.5-25.8-25.5-14.2 0-25.8 11.4-25.8 25.5 0.1 14 11.6 25.4 25.8 25.4z"/>
	<path fill-rule="evenodd" class="s3" d="m40 40.9c7.4 0 13.4-5.9 13.4-13.2 0-7.3-6-13.2-13.4-13.2-7.4 0-13.4 5.9-13.4 13.2 0 7.3 6 13.2 13.4 13.2z"/>
	<path fill-rule="evenodd" class="s4" d="m19.4 111.9l41.2-9.7m-41.2 22.7l41.2-9.7m-41.2 21.4l41.2-9.6"/>
	<path fill-rule="evenodd" class="s0" d="m238 185.8c-11.9 0-21.6-9.6-21.6-21.4 0-8.7 5.2-16.2 12.8-19.5-0.3-0.2-0.5-0.5-0.5-0.8v-47.9h-23.7c-0.6 0-1-0.4-1-1v-39.7c0-1.1 0.9-2 2-2h64c1.1 0 2 0.9 2 2v39.7c0 0.6-0.5 1-1 1h-23.8v47.9c0 0.3-0.1 0.6-0.4 0.8 7.5 3.3 12.8 10.8 12.8 19.5 0 11.8-9.7 21.4-21.6 21.4zm7.2-89.6h-14.5v47.9q0 0.1 0 0.2c2.3-0.8 4.7-1.2 7.3-1.2 2.5 0 5 0.4 7.3 1.2q-0.1-0.1-0.1-0.2zm-39.2-40.7v38.7h64v-38.7z"/>
	<path fill-rule="evenodd" class="s3" d="m238 169.5c2.8 0 5.1-2.3 5.1-5.1 0-2.8-2.3-5.1-5.1-5.1-2.8 0-5.1 2.3-5.1 5.1 0 2.8 2.3 5.1 5.1 5.1z"/>
	<path fill-rule="evenodd" class="s3" d="m238 53.1c14.2 0 25.8-11.4 25.8-25.4-0.1-14.1-11.6-25.5-25.8-25.5-14.2 0-25.8 11.4-25.8 25.5 0.1 14 11.6 25.4 25.8 25.4z"/>
	<path fill-rule="evenodd" class="s3" d="m238 40.9c7.4 0 13.4-5.9 13.4-13.2 0-7.3-6-13.2-13.4-13.2-7.4 0-13.4 5.9-13.4 13.2 0 7.3 6 13.2 13.4 13.2z"/>
	<path fill-rule="evenodd" class="s4" d="m217.4 111.9l41.2-9.7m-41.2 22.7l41.2-9.7m-41.2 21.4l41.2-9.6"/>
	<path class="s3" d="m139 80.9c-20.7 0-37.4-16.7-37.4-37.3 0-20.7 16.7-37.4 37.4-37.4 20.7 0 37.4 16.7 37.4 37.4 0 20.6-16.7 37.3-37.4 37.3z"/>
	<path fill-rule="evenodd" class="s5" d="m114.4 52.5c-1.4-3.9-1.9-8-1.4-12.1 0.5-4.1 2-8 4.3-11.5 2.3-3.4 5.4-6.2 9-8.2 3.6-2 7.7-3.1 11.8-3.3 4.1-0.1 8.2 0.7 12 2.5 3.7 1.7 7 4.3 9.5 7.6 2.6 3.2 4.3 7 5.1 11.1 0.8 4 0.6 8.2-0.6 12.2"/>
	<path fill-rule="evenodd" class="s2" d="m149.9 36.5c0.3 0.4 0.4 0.9 0.2 1.4l-3.4 5.6c-1.2 2-2.1 4-3.1 6-0.4 0.7-0.7 1.4-1 2-1 2-3 3.3-5.2 3.3-0.5 0-1 0-1.4-0.1-2.1-0.5-3.9-2.3-4.3-4.4-0.6-2.6 0.7-5.3 3.1-6.6 0.7-0.3 1.4-0.7 2-0.9 2-1 4.1-2 6.1-3.2l5.6-3.4c0.4-0.2 1-0.2 1.4 0.3zm-4.2 4.2l-1.6 0.9c-1.9 1.2-4.2 2.2-6.3 3.3-0.6 0.3-1.4 0.6-1.9 0.9-1.5 0.7-2.2 2.3-1.9 4 0.2 1.2 1.3 2.3 2.6 2.5 1.6 0.4 3.2-0.3 3.9-1.8 0.4-0.7 0.7-1.3 1-2 0.9-2.1 1.9-4.2 3.2-6.3z"/>
</svg>